<svg width="156" height="60" viewBox="0 0 156 60" fill="none" xmlns="http://www.w3.org/2000/svg">
<g filter="url(#filter0_di_9_151)">
<rect x="6" y="4" width="144" height="48" rx="8" fill="#5C2D91"/>
<path d="M57.1237 18.62C57.1237 18.4867 57.1903 18.42 57.3237 18.42H58.0237C58.157 18.42 58.2237 18.4867 58.2237 18.62V29.38C58.2237 29.8867 58.377 30.2667 58.6837 30.52C59.0037 30.76 59.4437 30.88 60.0037 30.88H60.2637C60.5837 30.88 60.797 30.92 60.9037 31C61.0103 31.0667 61.0637 31.2133 61.0637 31.44C61.0637 31.6667 60.997 31.82 60.8637 31.9C60.7437 31.9667 60.5437 32 60.2637 32C59.8637 32 59.477 31.9533 59.1037 31.86C58.7437 31.7667 58.4503 31.6 58.2237 31.36V31.62C58.2237 32.2333 58.1303 32.7933 57.9437 33.3C57.7703 33.82 57.497 34.2667 57.1237 34.64C56.7637 35.0133 56.297 35.3067 55.7237 35.52C55.1503 35.7333 54.477 35.84 53.7037 35.84C52.9837 35.84 52.337 35.74 51.7637 35.54C51.2037 35.34 50.7303 35.0533 50.3437 34.68C49.9703 34.32 49.6837 33.88 49.4837 33.36C49.2837 32.84 49.1837 32.2667 49.1837 31.64C49.1837 30.8 49.317 30.0333 49.5837 29.34C49.8637 28.6467 50.1637 28.0733 50.4837 27.62C50.537 27.54 50.6303 27.54 50.7637 27.62L51.3837 28.02C51.4903 28.0867 51.5103 28.1733 51.4437 28.28C51.177 28.6933 50.9237 29.1867 50.6837 29.76C50.4437 30.32 50.3237 30.9067 50.3237 31.52C50.3237 32.1467 50.437 32.66 50.6637 33.06C50.8903 33.4733 51.177 33.7933 51.5237 34.02C51.8703 34.26 52.2437 34.4267 52.6437 34.52C53.057 34.6133 53.4503 34.66 53.8237 34.66C54.277 34.66 54.7037 34.6067 55.1037 34.5C55.517 34.3933 55.8703 34.22 56.1637 33.98C56.457 33.74 56.6903 33.4267 56.8637 33.04C57.037 32.6667 57.1237 32.2067 57.1237 31.66V18.62ZM63.9359 29.38C63.9359 29.8867 64.1092 30.2667 64.4559 30.52C64.8159 30.76 65.2892 30.88 65.8759 30.88H65.9959C66.2625 30.88 66.4625 30.92 66.5959 31C66.7292 31.0667 66.7959 31.2067 66.7959 31.42C66.7959 31.6333 66.7359 31.7867 66.6159 31.88C66.4959 31.96 66.2892 32 65.9959 32C65.4359 32 64.9559 31.94 64.5559 31.82C64.1559 31.6867 63.8625 31.3933 63.6759 30.94C63.5159 31.26 63.3025 31.52 63.0359 31.72C62.7692 31.9067 62.3825 32 61.8759 32H60.2559C60.0025 32 59.8225 31.9667 59.7159 31.9C59.5959 31.82 59.5359 31.6733 59.5359 31.46C59.5359 31.2333 59.5892 31.08 59.6959 31C59.8025 30.92 59.9892 30.88 60.2559 30.88H61.7559C62.0092 30.88 62.2092 30.8467 62.3559 30.78C62.5025 30.7133 62.6092 30.6133 62.6759 30.48C62.7425 30.3333 62.7825 30.1533 62.7959 29.94C62.8225 29.7267 62.8359 29.48 62.8359 29.2V24.14C62.8359 24.0067 62.9025 23.94 63.0359 23.94H63.7359C63.8692 23.94 63.9359 24.0067 63.9359 24.14V29.38ZM63.8359 35.28C63.7025 35.28 63.6359 35.2133 63.6359 35.08V33.88C63.6359 33.7467 63.7025 33.68 63.8359 33.68H64.8759C65.0092 33.68 65.0759 33.7467 65.0759 33.88V35.08C65.0759 35.2133 65.0092 35.28 64.8759 35.28H63.8359ZM61.2759 35.28C61.1425 35.28 61.0759 35.2133 61.0759 35.08V33.88C61.0759 33.7467 61.1425 33.68 61.2759 33.68H62.3159C62.4492 33.68 62.5159 33.7467 62.5159 33.88V35.08C62.5159 35.2133 62.4492 35.28 62.3159 35.28H61.2759ZM75.038 29.54C75.038 29.9933 75.1914 30.3333 75.498 30.56C75.818 30.7733 76.2314 30.88 76.738 30.88H77.058C77.3247 30.88 77.5247 30.92 77.658 31C77.7914 31.0667 77.858 31.2133 77.858 31.44C77.858 31.68 77.7914 31.8333 77.658 31.9C77.538 31.9667 77.338 32 77.058 32C76.498 32 76.0114 31.9333 75.598 31.8C75.1847 31.6533 74.8847 31.3467 74.698 30.88C74.498 31.28 74.2114 31.5667 73.838 31.74C73.478 31.9133 72.998 32 72.398 32H65.998C65.4647 32 65.198 31.8267 65.198 31.48C65.198 31.2 65.2647 31.0333 65.398 30.98C65.518 30.9133 65.718 30.88 65.998 30.88H72.038C72.438 30.88 72.7514 30.8467 72.978 30.78C73.218 30.7133 73.398 30.6 73.518 30.44C73.6514 30.2667 73.7314 30.0467 73.758 29.78C73.798 29.5133 73.818 29.18 73.818 28.78C73.818 28.1533 73.7647 27.5933 73.658 27.1C73.5647 26.5933 73.398 26.1667 73.158 25.82C72.918 25.4733 72.6047 25.2067 72.218 25.02C71.8314 24.8333 71.3514 24.74 70.778 24.74C70.3114 24.74 69.8647 24.8267 69.438 25C69.0114 25.16 68.6247 25.4467 68.278 25.86C68.198 25.98 68.1047 25.9933 67.998 25.9L67.458 25.42C67.338 25.3533 67.318 25.26 67.398 25.14C67.7447 24.7 68.1847 24.3333 68.718 24.04C69.2647 23.7333 69.958 23.58 70.798 23.58C71.6647 23.58 72.3714 23.7267 72.918 24.02C73.478 24.3133 73.9114 24.7 74.218 25.18C74.5247 25.6467 74.738 26.18 74.858 26.78C74.978 27.38 75.038 27.9933 75.038 28.62V29.54ZM70.518 35.24C70.3847 35.24 70.318 35.1733 70.318 35.04V33.84C70.318 33.7067 70.3847 33.64 70.518 33.64H71.558C71.6914 33.64 71.758 33.7067 71.758 33.84V35.04C71.758 35.1733 71.6914 35.24 71.558 35.24H70.518ZM81.2727 29.4C81.2727 29.88 81.4527 30.2467 81.8127 30.5C82.1727 30.7533 82.6527 30.88 83.2527 30.88C83.6261 30.88 83.9194 30.86 84.1327 30.82C84.3594 30.78 84.5261 30.7 84.6327 30.58C84.7527 30.4467 84.8261 30.2667 84.8527 30.04C84.8794 29.8133 84.8927 29.5133 84.8927 29.14V26C84.8927 25.8667 84.9594 25.8 85.0927 25.8H85.8127C85.9461 25.8 86.0127 25.8667 86.0127 26V29.5C86.0127 29.9533 86.1994 30.3 86.5727 30.54C86.9461 30.7667 87.4394 30.88 88.0527 30.88C88.4261 30.88 88.7194 30.86 88.9327 30.82C89.1461 30.7667 89.2994 30.6733 89.3927 30.54C89.4994 30.4067 89.5661 30.2333 89.5927 30.02C89.6194 29.7933 89.6327 29.5 89.6327 29.14V24.14C89.6327 24.0067 89.6994 23.94 89.8327 23.94H90.5527C90.6861 23.94 90.7527 24.0067 90.7527 24.14V29.38C90.7527 29.8867 90.9261 30.2667 91.2727 30.52C91.6327 30.76 92.1061 30.88 92.6927 30.88H92.7927C93.0594 30.88 93.2594 30.92 93.3927 31C93.5261 31.08 93.5927 31.2333 93.5927 31.46C93.5927 31.6867 93.5261 31.8333 93.3927 31.9C93.2727 31.9667 93.0727 32 92.7927 32C92.2461 32 91.7794 31.9333 91.3927 31.8C91.0061 31.6667 90.7061 31.38 90.4927 30.94C90.3327 31.2867 90.1061 31.5533 89.8127 31.74C89.5327 31.9133 89.1127 32 88.5527 32H87.6327C87.2594 32 86.8927 31.92 86.5327 31.76C86.1727 31.5867 85.9061 31.3267 85.7327 30.98C85.5727 31.3 85.3461 31.5533 85.0527 31.74C84.7594 31.9133 84.3461 32 83.8127 32H82.8927C82.5194 32 82.1527 31.92 81.7927 31.76C81.4327 31.5867 81.1661 31.3267 80.9927 30.98C80.8327 31.3 80.6061 31.5533 80.3127 31.74C80.0327 31.9133 79.6127 32 79.0527 32H76.9127C76.7127 32 76.5527 31.96 76.4327 31.88C76.3127 31.8 76.2527 31.68 76.2527 31.52C76.2527 31.2533 76.3194 31.08 76.4527 31C76.5727 30.92 76.7727 30.88 77.0527 30.88H79.1127C79.3661 30.88 79.5594 30.8467 79.6927 30.78C79.8394 30.7 79.9461 30.5933 80.0127 30.46C80.0794 30.3133 80.1194 30.1333 80.1327 29.92C80.1461 29.6933 80.1527 29.4333 80.1527 29.14V26C80.1527 25.8667 80.2194 25.8 80.3527 25.8H81.0727C81.2061 25.8 81.2727 25.8667 81.2727 26V29.4ZM96.4749 29.38C96.4749 29.8867 96.6483 30.2667 96.9949 30.52C97.3549 30.76 97.8283 30.88 98.4149 30.88H98.5349C98.8016 30.88 99.0016 30.92 99.1349 31C99.2683 31.0667 99.3349 31.2067 99.3349 31.42C99.3349 31.6333 99.2749 31.7867 99.1549 31.88C99.0349 31.96 98.8283 32 98.5349 32C97.9749 32 97.4949 31.94 97.0949 31.82C96.6949 31.6867 96.4016 31.3933 96.2149 30.94C96.0549 31.26 95.8416 31.52 95.5749 31.72C95.3083 31.9067 94.9216 32 94.4149 32H92.7949C92.5416 32 92.3616 31.9667 92.2549 31.9C92.1349 31.82 92.0749 31.6733 92.0749 31.46C92.0749 31.2333 92.1283 31.08 92.2349 31C92.3416 30.92 92.5283 30.88 92.7949 30.88H94.2949C94.5483 30.88 94.7483 30.8467 94.8949 30.78C95.0416 30.7133 95.1483 30.6133 95.2149 30.48C95.2816 30.3333 95.3216 30.1533 95.3349 29.94C95.3616 29.7267 95.3749 29.48 95.3749 29.2V24.14C95.3749 24.0067 95.4416 23.94 95.5749 23.94H96.2749C96.4083 23.94 96.4749 24.0067 96.4749 24.14V29.38ZM96.6149 21.98C96.4816 21.98 96.4149 21.9133 96.4149 21.78V20.58C96.4149 20.4467 96.4816 20.38 96.6149 20.38H97.6549C97.7883 20.38 97.8549 20.4467 97.8549 20.58V21.78C97.8549 21.9133 97.7883 21.98 97.6549 21.98H96.6149ZM94.0549 21.98C93.9216 21.98 93.8549 21.9133 93.8549 21.78V20.58C93.8549 20.4467 93.9216 20.38 94.0549 20.38H95.0949C95.2283 20.38 95.2949 20.4467 95.2949 20.58V21.78C95.2949 21.9133 95.2283 21.98 95.0949 21.98H94.0549ZM98.5371 32C98.2704 32 98.0704 31.9667 97.9371 31.9C97.8038 31.8333 97.7371 31.6867 97.7371 31.46C97.7371 31.2067 97.8038 31.0467 97.9371 30.98C98.0571 30.9133 98.2571 30.88 98.5371 30.88H99.9971C100.33 30.88 100.584 30.8 100.757 30.64C100.944 30.48 101.037 30.2067 101.037 29.82V18.6C101.037 18.4667 101.104 18.4 101.237 18.4H101.937C102.07 18.4 102.137 18.4667 102.137 18.6V29.48C102.137 29.9067 102.104 30.28 102.037 30.6C101.97 30.92 101.85 31.1867 101.677 31.4C101.504 31.6 101.264 31.7533 100.957 31.86C100.664 31.9533 100.277 32 99.7971 32H98.5371ZM106.235 31.8C106.235 31.9333 106.168 32 106.035 32H105.335C105.201 32 105.135 31.9333 105.135 31.8V18.6C105.135 18.4667 105.201 18.4 105.335 18.4H106.035C106.168 18.4 106.235 18.4667 106.235 18.6V31.8Z" fill="white"/>
</g>
<defs>
<filter id="filter0_di_9_151" x="0" y="0" width="156" height="60" filterUnits="userSpaceOnUse" color-interpolation-filters="sRGB">
<feFlood flood-opacity="0" result="BackgroundImageFix"/>
<feColorMatrix in="SourceAlpha" type="matrix" values="0 0 0 0 0 0 0 0 0 0 0 0 0 0 0 0 0 0 127 0" result="hardAlpha"/>
<feOffset dy="2"/>
<feGaussianBlur stdDeviation="3"/>
<feComposite in2="hardAlpha" operator="out"/>
<feColorMatrix type="matrix" values="0 0 0 0 0 0 0 0 0 0 0 0 0 0 0 0 0 0 0.25 0"/>
<feBlend mode="normal" in2="BackgroundImageFix" result="effect1_dropShadow_9_151"/>
<feBlend mode="normal" in="SourceGraphic" in2="effect1_dropShadow_9_151" result="shape"/>
<feColorMatrix in="SourceAlpha" type="matrix" values="0 0 0 0 0 0 0 0 0 0 0 0 0 0 0 0 0 0 127 0" result="hardAlpha"/>
<feOffset dx="-4" dy="-4"/>
<feGaussianBlur stdDeviation="3"/>
<feComposite in2="hardAlpha" operator="arithmetic" k2="-1" k3="1"/>
<feColorMatrix type="matrix" values="0 0 0 0 0 0 0 0 0 0 0 0 0 0 0 0 0 0 0.47 0"/>
<feBlend mode="normal" in2="shape" result="effect2_innerShadow_9_151"/>
</filter>
</defs>
</svg>
