<svg width="156" height="60" viewBox="0 0 156 60" fill="none" xmlns="http://www.w3.org/2000/svg">
<g filter="url(#filter0_di_9_84)">
<rect x="6" y="4" width="144" height="48" rx="8" fill="#5C2D91"/>
<path d="M27.3294 27.62C27.3827 27.54 27.476 27.54 27.6094 27.62L28.2294 28.02C28.336 28.0867 28.356 28.1733 28.2894 28.28C28.0227 28.6933 27.7694 29.1867 27.5294 29.76C27.2894 30.32 27.1694 30.9067 27.1694 31.52C27.1694 32.1467 27.2827 32.66 27.5094 33.06C27.736 33.4733 28.016 33.7933 28.3494 34.02C28.6827 34.26 29.0427 34.4267 29.4294 34.52C29.8294 34.6133 30.196 34.66 30.5294 34.66C31.036 34.66 31.496 34.6067 31.9094 34.5C32.336 34.3933 32.7027 34.22 33.0094 33.98C33.316 33.74 33.5494 33.4267 33.7094 33.04C33.8827 32.6667 33.9694 32.2067 33.9694 31.66V18.6C33.9694 18.4667 34.036 18.4 34.1694 18.4H34.8694C35.0027 18.4 35.0694 18.4667 35.0694 18.6V31.62C35.0694 32.2333 34.976 32.7933 34.7894 33.3C34.616 33.82 34.3427 34.2667 33.9694 34.64C33.6094 35.0133 33.1427 35.3067 32.5694 35.52C31.996 35.7333 31.3227 35.84 30.5494 35.84C29.8294 35.84 29.1827 35.74 28.6094 35.54C28.0494 35.34 27.576 35.0533 27.1894 34.68C26.816 34.32 26.5294 33.88 26.3294 33.36C26.1294 32.84 26.0294 32.2667 26.0294 31.64C26.0294 30.8 26.1627 30.0333 26.4294 29.34C26.7094 28.6467 27.0094 28.0733 27.3294 27.62ZM39.4742 35.92C39.3409 35.92 39.2742 35.8533 39.2742 35.72V35C39.2742 34.8667 39.3409 34.8 39.4742 34.8H41.9142C42.5676 34.8 43.0476 34.68 43.3542 34.44C43.6742 34.2 43.8342 33.72 43.8342 33V32H41.5742C41.0142 32 40.5076 31.9333 40.0542 31.8C39.6009 31.6667 39.2076 31.4467 38.8742 31.14C38.5542 30.8333 38.3076 30.4267 38.1342 29.92C37.9609 29.4 37.8742 28.76 37.8742 28C37.8742 27.28 37.9676 26.6467 38.1542 26.1C38.3409 25.54 38.5942 25.08 38.9142 24.72C39.2476 24.3467 39.6276 24.0667 40.0542 23.88C40.4942 23.68 40.9676 23.58 41.4742 23.58C42.6609 23.58 43.5342 23.9333 44.0942 24.64C44.6676 25.3467 44.9542 26.4267 44.9542 27.88V30.88H46.3542C46.6209 30.88 46.8209 30.9133 46.9542 30.98C47.0876 31.0467 47.1542 31.18 47.1542 31.38C47.1542 31.6467 47.0876 31.82 46.9542 31.9C46.8342 31.9667 46.6342 32 46.3542 32H44.9542V32.98C44.9542 34.02 44.7342 34.7667 44.2942 35.22C43.8676 35.6867 43.1876 35.92 42.2542 35.92H39.4742ZM41.4742 24.7C40.7409 24.7 40.1476 24.98 39.6942 25.54C39.2542 26.1 39.0342 26.9333 39.0342 28.04C39.0342 28.5733 39.0809 29.02 39.1742 29.38C39.2809 29.74 39.4409 30.0333 39.6542 30.26C39.8676 30.4733 40.1342 30.6333 40.4542 30.74C40.7742 30.8333 41.1476 30.88 41.5742 30.88H43.8342V27.92C43.8342 26.8933 43.6542 26.1 43.2942 25.54C42.9342 24.98 42.3276 24.7 41.4742 24.7ZM50.8794 22C50.746 22 50.6794 21.9333 50.6794 21.8V20.6C50.6794 20.4667 50.746 20.4 50.8794 20.4H51.6794C51.8127 20.4 51.8794 20.4667 51.8794 20.6V21.8C51.8794 21.9333 51.8127 22 51.6794 22H50.8794ZM46.3594 32C45.826 32 45.5594 31.8267 45.5594 31.48C45.5594 31.2 45.626 31.0333 45.7594 30.98C45.8794 30.9133 46.0794 30.88 46.3594 30.88H52.3994C52.7994 30.88 53.1127 30.8467 53.3394 30.78C53.5794 30.7133 53.7594 30.6 53.8794 30.44C54.0127 30.2667 54.0927 30.0467 54.1194 29.78C54.1594 29.5133 54.1794 29.18 54.1794 28.78C54.1794 28.1533 54.126 27.5933 54.0194 27.1C53.926 26.5933 53.7594 26.1667 53.5194 25.82C53.2794 25.4733 52.966 25.2067 52.5794 25.02C52.1927 24.8333 51.7127 24.74 51.1394 24.74C50.6727 24.74 50.226 24.8267 49.7994 25C49.3727 25.16 48.986 25.4467 48.6394 25.86C48.5594 25.98 48.466 25.9933 48.3594 25.9L47.8194 25.42C47.6994 25.3533 47.6794 25.26 47.7594 25.14C48.106 24.7 48.546 24.3333 49.0794 24.04C49.626 23.7333 50.3194 23.58 51.1594 23.58C52.0394 23.58 52.7527 23.7333 53.2994 24.04C53.8594 24.3333 54.2927 24.72 54.5994 25.2C54.906 25.68 55.1127 26.2267 55.2194 26.84C55.3394 27.4533 55.3994 28.0733 55.3994 28.7C55.3994 29.3 55.3594 29.8133 55.2794 30.24C55.1994 30.6533 55.0594 30.9933 54.8594 31.26C54.6594 31.5133 54.386 31.7 54.0394 31.82C53.706 31.94 53.2794 32 52.7594 32H46.3594ZM65.0942 29.36C65.0942 29.8667 65.2676 30.2467 65.6142 30.5C65.9742 30.7533 66.4476 30.88 67.0342 30.88H67.1542C67.4209 30.88 67.6209 30.92 67.7542 31C67.8876 31.08 67.9542 31.2333 67.9542 31.46C67.9542 31.6867 67.8876 31.8333 67.7542 31.9C67.6342 31.9667 67.4342 32 67.1542 32C66.5942 32 66.0942 31.9267 65.6542 31.78C65.2142 31.6333 64.9142 31.32 64.7542 30.84C64.5676 31.2667 64.2876 31.5667 63.9142 31.74C63.5409 31.9133 63.0542 32 62.4542 32H58.0542C57.9209 32 57.8542 31.9333 57.8542 31.8V31.08C57.8542 30.9467 57.9209 30.88 58.0542 30.88H62.0542C62.4542 30.88 62.7742 30.8467 63.0142 30.78C63.2676 30.7133 63.4542 30.6067 63.5742 30.46C63.7076 30.3 63.7942 30.0933 63.8342 29.84C63.8742 29.5733 63.8942 29.2467 63.8942 28.86V26.92C63.8942 26.1733 63.6942 25.62 63.2942 25.26C62.8942 24.8867 62.2542 24.7 61.3742 24.7H59.0342C58.9009 24.7 58.8342 24.6333 58.8342 24.5V23.78C58.8342 23.6467 58.9009 23.58 59.0342 23.58H61.7142C62.2209 23.58 62.6809 23.6467 63.0942 23.78C63.5209 23.9133 63.8809 24.12 64.1742 24.4C64.4676 24.6667 64.6942 25.0133 64.8542 25.44C65.0142 25.8667 65.0942 26.38 65.0942 26.98V29.36ZM67.1602 32C66.8935 32 66.6935 31.9667 66.5602 31.9C66.4268 31.8333 66.3602 31.6867 66.3602 31.46C66.3602 31.2067 66.4268 31.0467 66.5602 30.98C66.6802 30.9133 66.8802 30.88 67.1602 30.88H68.6202C68.9535 30.88 69.2068 30.8 69.3802 30.64C69.5668 30.48 69.6602 30.2067 69.6602 29.82V18.6C69.6602 18.4667 69.7268 18.4 69.8602 18.4H70.5602C70.6935 18.4 70.7602 18.4667 70.7602 18.6V29.48C70.7602 29.9067 70.7268 30.28 70.6602 30.6C70.5935 30.92 70.4735 31.1867 70.3002 31.4C70.1268 31.6 69.8868 31.7533 69.5802 31.86C69.2868 31.9533 68.9002 32 68.4202 32H67.1602ZM74.8578 31.8C74.8578 31.9333 74.7911 32 74.6578 32H73.9578C73.8245 32 73.7578 31.9333 73.7578 31.8V18.6C73.7578 18.4667 73.8245 18.4 73.9578 18.4H74.6578C74.7911 18.4 74.8578 18.4667 74.8578 18.6V31.8ZM90.1413 18.62C90.1413 18.4867 90.2079 18.42 90.3413 18.42H91.0413C91.1746 18.42 91.2413 18.4867 91.2413 18.62V29.38C91.2413 29.8867 91.3946 30.2667 91.7013 30.52C92.0213 30.76 92.4613 30.88 93.0213 30.88H93.2813C93.6013 30.88 93.8146 30.92 93.9213 31C94.0279 31.0667 94.0813 31.2133 94.0813 31.44C94.0813 31.6667 94.0146 31.82 93.8813 31.9C93.7613 31.9667 93.5613 32 93.2813 32C92.8813 32 92.4946 31.9533 92.1213 31.86C91.7613 31.7667 91.4679 31.6 91.2413 31.36V31.62C91.2413 32.2333 91.1479 32.7933 90.9613 33.3C90.7879 33.82 90.5146 34.2667 90.1413 34.64C89.7813 35.0133 89.3146 35.3067 88.7413 35.52C88.1679 35.7333 87.4946 35.84 86.7213 35.84C86.0013 35.84 85.3546 35.74 84.7813 35.54C84.2213 35.34 83.7479 35.0533 83.3613 34.68C82.9879 34.32 82.7013 33.88 82.5013 33.36C82.3013 32.84 82.2013 32.2667 82.2013 31.64C82.2013 30.8 82.3346 30.0333 82.6012 29.34C82.8813 28.6467 83.1813 28.0733 83.5013 27.62C83.5546 27.54 83.6479 27.54 83.7812 27.62L84.4013 28.02C84.5079 28.0867 84.5279 28.1733 84.4613 28.28C84.1946 28.6933 83.9413 29.1867 83.7013 29.76C83.4613 30.32 83.3413 30.9067 83.3413 31.52C83.3413 32.1467 83.4546 32.66 83.6813 33.06C83.9079 33.4733 84.1946 33.7933 84.5413 34.02C84.8879 34.26 85.2613 34.4267 85.6613 34.52C86.0746 34.6133 86.4679 34.66 86.8413 34.66C87.2946 34.66 87.7213 34.6067 88.1213 34.5C88.5346 34.3933 88.8879 34.22 89.1813 33.98C89.4746 33.74 89.7079 33.4267 89.8813 33.04C90.0546 32.6667 90.1413 32.2067 90.1413 31.66V18.62ZM96.9534 29.38C96.9534 29.8867 97.1268 30.2667 97.4734 30.52C97.8334 30.76 98.3068 30.88 98.8934 30.88H99.0134C99.2801 30.88 99.4801 30.92 99.6134 31C99.7468 31.0667 99.8134 31.2067 99.8134 31.42C99.8134 31.6333 99.7534 31.7867 99.6334 31.88C99.5134 31.96 99.3068 32 99.0134 32C98.4534 32 97.9734 31.94 97.5734 31.82C97.1734 31.6867 96.8801 31.3933 96.6934 30.94C96.5334 31.26 96.3201 31.52 96.0534 31.72C95.7868 31.9067 95.4001 32 94.8934 32H93.2734C93.0201 32 92.8401 31.9667 92.7334 31.9C92.6134 31.82 92.5534 31.6733 92.5534 31.46C92.5534 31.2333 92.6068 31.08 92.7134 31C92.8201 30.92 93.0068 30.88 93.2734 30.88H94.7734C95.0268 30.88 95.2268 30.8467 95.3734 30.78C95.5201 30.7133 95.6268 30.6133 95.6934 30.48C95.7601 30.3333 95.8001 30.1533 95.8134 29.94C95.8401 29.7267 95.8534 29.48 95.8534 29.2V24.14C95.8534 24.0067 95.9201 23.94 96.0534 23.94H96.7534C96.8868 23.94 96.9534 24.0067 96.9534 24.14V29.38ZM96.8534 35.28C96.7201 35.28 96.6534 35.2133 96.6534 35.08V33.88C96.6534 33.7467 96.7201 33.68 96.8534 33.68H97.8934C98.0268 33.68 98.0934 33.7467 98.0934 33.88V35.08C98.0934 35.2133 98.0268 35.28 97.8934 35.28H96.8534ZM94.2934 35.28C94.1601 35.28 94.0934 35.2133 94.0934 35.08V33.88C94.0934 33.7467 94.1601 33.68 94.2934 33.68H95.3334C95.4668 33.68 95.5334 33.7467 95.5334 33.88V35.08C95.5334 35.2133 95.4668 35.28 95.3334 35.28H94.2934ZM108.056 29.54C108.056 29.9933 108.209 30.3333 108.516 30.56C108.836 30.7733 109.249 30.88 109.756 30.88H110.076C110.342 30.88 110.542 30.92 110.676 31C110.809 31.0667 110.876 31.2133 110.876 31.44C110.876 31.68 110.809 31.8333 110.676 31.9C110.556 31.9667 110.356 32 110.076 32C109.516 32 109.029 31.9333 108.616 31.8C108.202 31.6533 107.902 31.3467 107.716 30.88C107.516 31.28 107.229 31.5667 106.856 31.74C106.496 31.9133 106.016 32 105.416 32H99.0156C98.4823 32 98.2156 31.8267 98.2156 31.48C98.2156 31.2 98.2823 31.0333 98.4156 30.98C98.5356 30.9133 98.7356 30.88 99.0156 30.88H105.056C105.456 30.88 105.769 30.8467 105.996 30.78C106.236 30.7133 106.416 30.6 106.536 30.44C106.669 30.2667 106.749 30.0467 106.776 29.78C106.816 29.5133 106.836 29.18 106.836 28.78C106.836 28.1533 106.782 27.5933 106.676 27.1C106.582 26.5933 106.416 26.1667 106.176 25.82C105.936 25.4733 105.622 25.2067 105.236 25.02C104.849 24.8333 104.369 24.74 103.796 24.74C103.329 24.74 102.882 24.8267 102.456 25C102.029 25.16 101.642 25.4467 101.296 25.86C101.216 25.98 101.122 25.9933 101.016 25.9L100.476 25.42C100.356 25.3533 100.336 25.26 100.416 25.14C100.762 24.7 101.202 24.3333 101.736 24.04C102.282 23.7333 102.976 23.58 103.816 23.58C104.682 23.58 105.389 23.7267 105.936 24.02C106.496 24.3133 106.929 24.7 107.236 25.18C107.542 25.6467 107.756 26.18 107.876 26.78C107.996 27.38 108.056 27.9933 108.056 28.62V29.54ZM103.536 35.24C103.402 35.24 103.336 35.1733 103.336 35.04V33.84C103.336 33.7067 103.402 33.64 103.536 33.64H104.576C104.709 33.64 104.776 33.7067 104.776 33.84V35.04C104.776 35.1733 104.709 35.24 104.576 35.24H103.536ZM114.29 29.4C114.29 29.88 114.47 30.2467 114.83 30.5C115.19 30.7533 115.67 30.88 116.27 30.88C116.644 30.88 116.937 30.86 117.15 30.82C117.377 30.78 117.544 30.7 117.65 30.58C117.77 30.4467 117.844 30.2667 117.87 30.04C117.897 29.8133 117.91 29.5133 117.91 29.14V26C117.91 25.8667 117.977 25.8 118.11 25.8H118.83C118.964 25.8 119.03 25.8667 119.03 26V29.5C119.03 29.9533 119.217 30.3 119.59 30.54C119.964 30.7667 120.457 30.88 121.07 30.88C121.444 30.88 121.737 30.86 121.95 30.82C122.164 30.7667 122.317 30.6733 122.41 30.54C122.517 30.4067 122.584 30.2333 122.61 30.02C122.637 29.7933 122.65 29.5 122.65 29.14V24.14C122.65 24.0067 122.717 23.94 122.85 23.94H123.57C123.704 23.94 123.77 24.0067 123.77 24.14V29.38C123.77 29.8867 123.944 30.2667 124.29 30.52C124.65 30.76 125.124 30.88 125.71 30.88H125.81C126.077 30.88 126.277 30.92 126.41 31C126.544 31.08 126.61 31.2333 126.61 31.46C126.61 31.6867 126.544 31.8333 126.41 31.9C126.29 31.9667 126.09 32 125.81 32C125.264 32 124.797 31.9333 124.41 31.8C124.024 31.6667 123.724 31.38 123.51 30.94C123.35 31.2867 123.124 31.5533 122.83 31.74C122.55 31.9133 122.13 32 121.57 32H120.65C120.277 32 119.91 31.92 119.55 31.76C119.19 31.5867 118.924 31.3267 118.75 30.98C118.59 31.3 118.364 31.5533 118.07 31.74C117.777 31.9133 117.364 32 116.83 32H115.91C115.537 32 115.17 31.92 114.81 31.76C114.45 31.5867 114.184 31.3267 114.01 30.98C113.85 31.3 113.624 31.5533 113.33 31.74C113.05 31.9133 112.63 32 112.07 32H109.93C109.73 32 109.57 31.96 109.45 31.88C109.33 31.8 109.27 31.68 109.27 31.52C109.27 31.2533 109.337 31.08 109.47 31C109.59 30.92 109.79 30.88 110.07 30.88H112.13C112.384 30.88 112.577 30.8467 112.71 30.78C112.857 30.7 112.964 30.5933 113.03 30.46C113.097 30.3133 113.137 30.1333 113.15 29.92C113.164 29.6933 113.17 29.4333 113.17 29.14V26C113.17 25.8667 113.237 25.8 113.37 25.8H114.09C114.224 25.8 114.29 25.8667 114.29 26V29.4ZM125.812 32C125.546 32 125.346 31.9733 125.212 31.92C125.079 31.8667 125.012 31.7333 125.012 31.52C125.012 31.2533 125.079 31.08 125.212 31C125.332 30.92 125.532 30.88 125.812 30.88H127.253C127.586 30.88 127.826 30.8067 127.973 30.66C128.133 30.5 128.213 30.22 128.213 29.82V24.14C128.213 24.0067 128.279 23.94 128.413 23.94H129.133C129.266 23.94 129.333 24.0067 129.333 24.14V29.48C129.333 30.3467 129.153 30.9867 128.793 31.4C128.433 31.8 127.833 32 126.993 32H125.812ZM129.613 21.98C129.479 21.98 129.413 21.9133 129.413 21.78V20.58C129.413 20.4467 129.479 20.38 129.613 20.38H130.653C130.786 20.38 130.853 20.4467 130.853 20.58V21.78C130.853 21.9133 130.786 21.98 130.653 21.98H129.613ZM127.053 21.98C126.919 21.98 126.853 21.9133 126.853 21.78V20.58C126.853 20.4467 126.919 20.38 127.053 20.38H128.093C128.226 20.38 128.293 20.4467 128.293 20.58V21.78C128.293 21.9133 128.226 21.98 128.093 21.98H127.053Z" fill="white"/>
</g>
<defs>
<filter id="filter0_di_9_84" x="0" y="0" width="156" height="60" filterUnits="userSpaceOnUse" color-interpolation-filters="sRGB">
<feFlood flood-opacity="0" result="BackgroundImageFix"/>
<feColorMatrix in="SourceAlpha" type="matrix" values="0 0 0 0 0 0 0 0 0 0 0 0 0 0 0 0 0 0 127 0" result="hardAlpha"/>
<feOffset dy="2"/>
<feGaussianBlur stdDeviation="3"/>
<feComposite in2="hardAlpha" operator="out"/>
<feColorMatrix type="matrix" values="0 0 0 0 0 0 0 0 0 0 0 0 0 0 0 0 0 0 0.25 0"/>
<feBlend mode="normal" in2="BackgroundImageFix" result="effect1_dropShadow_9_84"/>
<feBlend mode="normal" in="SourceGraphic" in2="effect1_dropShadow_9_84" result="shape"/>
<feColorMatrix in="SourceAlpha" type="matrix" values="0 0 0 0 0 0 0 0 0 0 0 0 0 0 0 0 0 0 127 0" result="hardAlpha"/>
<feOffset dx="-4" dy="-4"/>
<feGaussianBlur stdDeviation="3"/>
<feComposite in2="hardAlpha" operator="arithmetic" k2="-1" k3="1"/>
<feColorMatrix type="matrix" values="0 0 0 0 0 0 0 0 0 0 0 0 0 0 0 0 0 0 0.47 0"/>
<feBlend mode="normal" in2="shape" result="effect2_innerShadow_9_84"/>
</filter>
</defs>
</svg>
