<svg width="24" height="24" viewBox="0 0 24 24" fill="none" xmlns="http://www.w3.org/2000/svg">
<g id="Mobile">
<path id="Vector" d="M8.07875 2C7.39503 2.00066 6.7395 2.27256 6.25603 2.75603C5.77256 3.2395 5.50066 3.89503 5.5 4.57875V19.42C5.5 20.8425 6.65625 22 8.07875 22H15.4225C16.106 21.999 16.7612 21.727 17.2444 21.2435C17.7276 20.7601 17.9993 20.1048 18 19.4212V4.57875C17.9993 3.89503 17.7274 3.2395 17.244 2.75603C16.7605 2.27256 16.105 2.00066 15.4213 2H8.07875ZM8.07875 3.25H15.4225C16.1537 3.25 16.75 3.8475 16.75 4.57875V17H6.75V4.5775C6.75 3.8475 7.345 3.25 8.07875 3.25ZM10.48 4.52625V5.77625H13V4.52625H10.48ZM6.75 18.25H16.75V19.4225C16.75 20.1537 16.155 20.75 15.4213 20.75H8.08C7.72748 20.75 7.38938 20.61 7.13999 20.3609C6.8906 20.1117 6.75033 19.7738 6.75 19.4212V18.25Z" fill="#6750A4"/>
</g>
</svg>
