<svg width="24" height="24" viewBox="0 0 24 24" fill="none" xmlns="http://www.w3.org/2000/svg">
<g id="profile">
<g id="Group">
<path id="Vector" d="M12.4912 12.4453C15.0994 12.4453 17.2138 10.3309 17.2138 7.72264C17.2138 5.1144 15.0994 3 12.4912 3C9.88294 3 7.76854 5.1144 7.76854 7.72264C7.76854 10.3309 9.88294 12.4453 12.4912 12.4453Z" stroke="#5C2D91" stroke-width="1.25" stroke-linecap="round" stroke-linejoin="round"/>
<path id="Vector_2" fill-rule="evenodd" clip-rule="evenodd" d="M4.99999 19.0137C4.99873 18.6817 5.07298 18.3538 5.21714 18.0547C5.6695 17.15 6.94516 16.6705 8.00369 16.4533C8.7671 16.2904 9.54106 16.1816 10.3198 16.1276C11.7616 16.001 13.2117 16.001 14.6534 16.1276C15.4321 16.1822 16.206 16.291 16.9695 16.4533C18.0281 16.6705 19.3037 17.1047 19.7561 18.0547C20.046 18.6644 20.046 19.3721 19.7561 19.9818C19.3037 20.9317 18.0281 21.366 16.9695 21.5741C16.207 21.7438 15.4328 21.8557 14.6534 21.9088C13.4799 22.0083 12.301 22.0265 11.125 21.9631C10.8536 21.9631 10.5912 21.9631 10.3198 21.9088C9.54336 21.8563 8.77209 21.7444 8.01274 21.5741C6.94516 21.366 5.67855 20.9317 5.21714 19.9818C5.07372 19.6792 4.99954 19.3485 4.99999 19.0137Z" stroke="#5C2D91" stroke-width="1.25" stroke-linecap="round" stroke-linejoin="round"/>
</g>
</g>
</svg>
