<svg width="1440" height="850" viewBox="0 0 1440 850" fill="none" xmlns="http://www.w3.org/2000/svg">
<rect width="1440" height="850" fill="#5B2C90"/>
<path d="M-91.9379 -31L399.638 206.355L124.639 329.756L641 648L-148 329.756L155.325 186.87L-91.9379 -31Z" fill="#D9D9D9" fill-opacity="0.1"/>
<path d="M1243.16 492.722L1502.29 80.0001L1019.72 567.625L1292.12 612.602L1046.08 888.992L1527.74 558.746L1243.16 492.722Z" fill="#D9D9D9" fill-opacity="0.1"/>
<g clip-path="url(#clip0_337_1685)">
<path d="M1315.21 730.15L1290.91 705.855C1289.85 704.796 1288.13 704.796 1287.08 705.855L1285.79 707.134C1284.74 708.194 1284.74 709.912 1285.79 710.97L1310.09 735.264C1311.15 736.324 1312.87 736.324 1313.93 735.264L1315.2 733.986C1316.27 732.928 1316.27 731.21 1315.21 730.15Z" fill="#7365B2"/>
<path d="M1310.09 705.856L1285.79 730.151C1284.74 731.21 1284.74 732.928 1285.79 733.986L1287.07 735.265C1288.13 736.324 1289.85 736.324 1290.91 735.265L1315.21 710.971C1316.27 709.912 1316.27 708.194 1315.21 707.136L1313.93 705.858C1312.87 704.796 1311.15 704.796 1310.09 705.856Z" fill="#7365B2"/>
</g>
<rect x="310" y="71" width="23" height="22" stroke="#7365B2" stroke-width="4"/>
<rect x="1135.99" y="311.774" width="23" height="22" transform="rotate(33.7403 1135.99 311.774)" stroke="#7365B2" stroke-width="4"/>
<rect x="1339.99" y="441.79" width="36.317" height="34.7126" transform="rotate(33.7403 1339.99 441.79)" stroke="#7365B2" stroke-width="7"/>
<rect x="-22.0966" y="431.869" width="48.8884" height="42.9598" transform="rotate(-52.8479 -22.0966 431.869)" stroke="#7365B2" stroke-width="7"/>
<rect x="35.5024" y="761.692" width="30.3496" height="32.7691" transform="rotate(-52.8479 35.5024 761.692)" stroke="#7365B2" stroke-width="5"/>
<circle cx="120" cy="33" r="8" stroke="#7365B2" stroke-width="4"/>
<rect x="96.9545" y="403.798" width="19.5601" height="18.6875" transform="rotate(36.6535 96.9545 403.798)" stroke="#7365B2" stroke-width="4"/>
<rect x="1377.32" y="601.799" width="19.5601" height="18.6875" transform="rotate(-10.234 1377.32 601.799)" stroke="#8D42B1" stroke-width="4"/>
<rect x="70.675" y="593.644" width="19.5601" height="18.6875" transform="rotate(-125.477 70.675 593.644)" stroke="#613D99" stroke-width="4"/>
<circle cx="73" cy="384" r="8" stroke="#7365B2" stroke-width="4"/>
<path d="M66.5 450.95L62.4828 453L63.25 448.658L60 445.584L64.4914 444.95L66.5 441L68.5086 444.95L73 445.584L69.75 448.658L70.5172 453L66.5 450.95Z" fill="#8C6969"/>
<path d="M122.5 573.95L118.483 576L119.25 571.658L116 568.584L120.491 567.95L122.5 564L124.509 567.95L129 568.584L125.75 571.658L126.517 576L122.5 573.95Z" fill="#8C6969"/>
<path d="M92.5 824.217L82.9206 829L84.75 818.87L77 811.695L87.7103 810.217L92.5 801L97.2897 810.217L108 811.695L100.25 818.87L102.08 829L92.5 824.217Z" fill="#8C6969"/>
<path d="M1076.5 351.267L1071.25 354L1072.25 348.211L1068 344.111L1073.87 343.267L1076.5 338L1079.13 343.267L1085 344.111L1080.75 348.211L1081.75 354L1076.5 351.267Z" fill="#8C6969"/>
<path d="M1336.5 778.267L1331.25 781L1332.25 775.211L1328 771.111L1333.87 770.267L1336.5 765L1339.13 770.267L1345 771.111L1340.75 775.211L1341.75 781L1336.5 778.267Z" fill="#8C6969"/>
<path d="M1084.62 273.25L1098.5 252.411L1112.38 273.25H1084.62Z" stroke="#683D97" stroke-width="6"/>
<defs>
<clipPath id="clip0_337_1685">
<rect width="31" height="31" fill="white" transform="translate(1285 705)"/>
</clipPath>
</defs>
</svg>
