<svg width="17" height="16" viewBox="0 0 17 16" fill="none" xmlns="http://www.w3.org/2000/svg">
<g id="Frame">
<path id="Vector" d="M1.00006 6.4031V13.9885C1.00006 14.2567 1.10662 14.5139 1.29629 14.7036C1.48596 14.8933 1.74321 14.9998 2.01144 14.9998H14.6537C14.922 14.9998 15.1792 14.8933 15.3689 14.7036C15.5585 14.5139 15.6651 14.2567 15.6651 13.9885V6.4031" stroke="#5C2D91" stroke-width="0.766284" stroke-linecap="round" stroke-linejoin="round"/>
<path id="Vector_2" d="M3.90778 5.08076C2.89113 5.39123 1.91503 5.82157 1.00006 6.36269L7.75862 11.0226C7.92741 11.139 8.12758 11.2013 8.33258 11.2013C8.53758 11.2013 8.73775 11.139 8.90654 11.0226L15.6651 6.36269C14.7501 5.82157 13.774 5.39123 12.7574 5.08076" stroke="#5C2D91" stroke-width="0.766284" stroke-linecap="round" stroke-linejoin="round"/>
<path id="Vector_3" d="M3.90778 8.36776V1.75838C3.90778 1.5572 3.98769 1.36426 4.12995 1.22201C4.2722 1.07976 4.46514 0.99984 4.66631 0.99984H11.9988C12.2 0.99984 12.3929 1.07976 12.5352 1.22201C12.6775 1.36426 12.7574 1.5572 12.7574 1.75838V8.36523L8.90653 11.0226C8.73774 11.139 8.53757 11.2013 8.33257 11.2013C8.12757 11.2013 7.92741 11.139 7.75861 11.0226L3.9103 8.36776" stroke="#5C2D91" stroke-width="0.766284" stroke-linecap="round" stroke-linejoin="round"/>
<path id="Vector_4" d="M10.7346 3.24763H5.93054" stroke="#5C2D91" stroke-width="0.766284" stroke-linecap="round" stroke-linejoin="round"/>
<path id="Vector_5" d="M8.33257 7.14402H5.93054" stroke="#5C2D91" stroke-width="0.766284" stroke-linecap="round" stroke-linejoin="round"/>
<path id="Vector_6" d="M10.7346 5.19698H5.93054" stroke="#5C2D91" stroke-width="0.766284" stroke-linecap="round" stroke-linejoin="round"/>
<path id="Vector_7" d="M6.60811 10.2338L1.32617 14.7345" stroke="#5C2D91" stroke-width="0.766284" stroke-linecap="round" stroke-linejoin="round"/>
<path id="Vector_8" d="M10.0444 10.2338L15.3415 14.7345" stroke="#5C2D91" stroke-width="0.766284" stroke-linecap="round" stroke-linejoin="round"/>
</g>
</svg>
