<svg width="20" height="20" viewBox="0 0 20 20" fill="none" xmlns="http://www.w3.org/2000/svg">
<path d="M0.882261 10.8421L17.5328 18.7456C17.6928 18.8214 17.8695 18.8553 18.0462 18.8441C18.2229 18.8328 18.3939 18.7768 18.543 18.6813C18.6921 18.5857 18.8144 18.4538 18.8985 18.298C18.9825 18.1421 19.0256 17.9674 19.0235 17.7903L19.0232 17.7604C19.0216 17.6204 19.0028 17.4811 18.9674 17.3457L17.3104 11.007C17.2882 10.9225 17.2407 10.8469 17.1743 10.7902C17.1079 10.7335 17.0257 10.6985 16.9388 10.6899L9.94721 9.98813C9.83087 9.9754 9.72323 9.92048 9.64464 9.83376C9.56605 9.74704 9.52196 9.63453 9.52071 9.5175C9.51946 9.40047 9.56113 9.28704 9.63784 9.19866C9.71456 9.11027 9.821 9.05306 9.93704 9.03785L16.912 8.1866C16.9987 8.17609 17.0801 8.13932 17.1453 8.08123C17.2105 8.02315 17.2563 7.94652 17.2767 7.86162L18.7976 1.48971C18.8302 1.35356 18.846 1.21393 18.8445 1.07394L18.8442 1.04398C18.8424 0.866979 18.7955 0.693362 18.7081 0.539456C18.6206 0.385548 18.4955 0.256408 18.3444 0.164182C18.1933 0.0719567 18.0212 0.0196725 17.8444 0.0122496C17.6675 0.00482482 17.4917 0.0425062 17.3334 0.121746L0.856761 8.37987C0.627297 8.49487 0.434758 8.67203 0.301092 8.89115C0.167427 9.11027 0.0980118 9.36253 0.100759 9.61919C0.103507 9.87585 0.178306 10.1266 0.316631 10.3428C0.454957 10.559 0.650387 10.732 0.882261 10.8421Z" fill="#5C2D91"/>
</svg>
