<svg width="20" height="20" viewBox="0 0 20 20" fill="none" xmlns="http://www.w3.org/2000/svg">
<g id="location">
<g id="Group">
<path id="Vector" fill-rule="evenodd" clip-rule="evenodd" d="M3.53259 8.65942C3.5446 5.1256 6.41906 2.2706 9.95288 2.28257C13.4867 2.29461 16.3417 5.16908 16.3297 8.7029V8.77536C16.2862 11.0725 15.0036 13.1957 13.4311 14.8551C12.5319 15.7889 11.5276 16.6157 10.4384 17.3188C10.1471 17.5708 9.71514 17.5708 9.4239 17.3188C7.80015 16.262 6.37504 14.9276 5.21375 13.3768C4.17872 12.0245 3.59106 10.3831 3.53259 8.68116V8.65942Z" stroke="#5C2D91" stroke-linecap="round" stroke-linejoin="round"/>
<path id="Vector_2" d="M9.93084 10.8333C11.0635 10.8333 11.9817 9.91514 11.9817 8.7825C11.9817 7.64986 11.0635 6.73167 9.93084 6.73167C8.79819 6.73167 7.88 7.64986 7.88 8.7825C7.88 9.91514 8.79819 10.8333 9.93084 10.8333Z" stroke="#5C2D91" stroke-linecap="round" stroke-linejoin="round"/>
</g>
</g>
</svg>
