<svg width="20" height="22" viewBox="0 0 20 22" fill="none" xmlns="http://www.w3.org/2000/svg">
<path d="M13.2868 19.1524C12.9592 19.8431 12.4423 20.4267 11.7962 20.8353C11.1501 21.2439 10.4013 21.4609 9.6368 21.4609C8.87232 21.4609 8.12354 21.2439 7.47744 20.8353C6.83133 20.4267 6.31444 19.8431 5.9868 19.1524H13.2868ZM7.38701 1.45182C7.5105 1.18171 7.68129 0.935864 7.89134 0.72589C8.12007 0.495842 8.39203 0.313281 8.69156 0.188706C8.9911 0.0641315 9.3123 0 9.63671 0C9.96112 0 10.2823 0.0641315 10.5819 0.188706C10.8814 0.313281 11.1534 0.495842 11.3821 0.72589C11.5926 0.935802 11.7638 1.18164 11.8878 1.45182C10.4127 1.06372 8.86231 1.06372 7.38722 1.45182H7.38701ZM0.657017 5.80154C0.629688 5.88652 0.56972 5.95717 0.490303 5.99794C0.410887 6.0387 0.318529 6.04625 0.233546 6.01892C0.148563 5.9916 0.0779176 5.93163 0.03715 5.85221C-0.00361766 5.77279 -0.0111676 5.68044 0.016161 5.59545C0.35976 4.5144 0.897271 3.50492 1.60241 2.61638C2.31282 1.72887 3.17761 0.976888 4.15518 0.396615C4.23188 0.351448 4.32333 0.338445 4.40958 0.360441C4.49583 0.382438 4.56988 0.437648 4.61559 0.514031C4.66129 0.590413 4.67493 0.681769 4.65354 0.768171C4.63215 0.854573 4.57746 0.929011 4.5014 0.975246C2.66858 2.05484 1.29941 3.77371 0.657017 5.80154ZM14.589 0.855327C14.5505 0.833461 14.5167 0.804234 14.4895 0.769313C14.4624 0.734392 14.4424 0.694462 14.4306 0.651803C14.4189 0.609143 14.4157 0.564589 14.4211 0.520685C14.4266 0.476781 14.4407 0.434387 14.4626 0.395923C14.4844 0.357458 14.5137 0.323678 14.5486 0.296509C14.5835 0.26934 14.6234 0.249315 14.6661 0.237578C14.7087 0.225841 14.7533 0.222621 14.7972 0.228103C14.8411 0.233584 14.8835 0.24766 14.922 0.269525C16.9825 1.43902 18.5292 3.33921 19.2561 5.59428C19.2837 5.67943 19.2764 5.77207 19.2357 5.85183C19.1951 5.93158 19.1244 5.99191 19.0392 6.01955C18.9541 6.04719 18.8615 6.03988 18.7817 5.99921C18.7019 5.95854 18.6416 5.88786 18.614 5.80271C17.9395 3.70756 16.5031 1.94195 14.589 0.855327ZM1.94841 13.4552C1.64291 14.5861 1.21883 15.4606 0.763644 16.3758C0.592028 16.7208 0.56426 17.1197 0.686432 17.4851C0.808605 17.8505 1.07074 18.1525 1.41532 18.3248C1.61757 18.4247 1.84021 18.4764 2.06578 18.4758H17.2076C17.593 18.476 17.9627 18.3234 18.2358 18.0515C18.5088 17.7795 18.6629 17.4104 18.6643 17.025C18.6642 16.7995 18.6113 16.5771 18.5098 16.3758C18.0545 15.4605 17.6305 14.586 17.325 13.4552C17.0183 12.3184 16.8267 10.9132 16.8386 8.93064C16.8565 5.54157 14.9986 3.36495 12.609 2.403C10.6993 1.6491 8.57452 1.6491 6.66485 2.403C4.27485 3.36495 2.41698 5.54157 2.43618 8.93051C2.44692 10.9131 2.25647 12.3184 1.94862 13.4551L1.94841 13.4552Z" fill="url(#paint0_linear_455_1267)"/>
<defs>
<linearGradient id="paint0_linear_455_1267" x1="9.63629" y1="0" x2="9.63629" y2="21.4609" gradientUnits="userSpaceOnUse">
<stop stop-color="#E4E900"/>
<stop offset="1" stop-color="#FFB905"/>
</linearGradient>
</defs>
</svg>
