<svg width="24" height="20" viewBox="0 0 24 20" fill="none" xmlns="http://www.w3.org/2000/svg">
<path d="M12.4756 3.07812C11.3379 3.07815 10.2249 3.41013 9.27311 4.03338C8.32131 4.65662 7.57203 5.54404 7.11715 6.58684C6.66227 7.62965 6.52154 8.78252 6.71221 9.90413C6.90289 11.0257 7.41669 12.0673 8.19062 12.9012L7.58591 15.1572C7.55016 15.2904 7.55471 15.4312 7.59899 15.5618C7.64327 15.6924 7.72529 15.8069 7.83467 15.8909C7.94405 15.9748 8.07588 16.0245 8.21348 16.0335C8.35108 16.0425 8.48826 16.0105 8.60768 15.9416L10.9735 14.5754C11.7773 14.7891 12.6175 14.8288 13.4379 14.6919C14.2584 14.555 15.0401 14.2446 15.731 13.7814C16.4219 13.3183 17.0061 12.7131 17.4444 12.0062C17.8828 11.2993 18.1653 10.5071 18.273 9.68231C18.3808 8.85756 18.3113 8.0193 18.0693 7.22353C17.8272 6.42776 17.4182 5.69278 16.8695 5.0677C16.3207 4.44261 15.645 3.9418 14.8873 3.5987C14.1295 3.25561 13.3074 3.07813 12.4756 3.07812Z" fill="#6EC8BF"/>
<path d="M23.9907 9.42102C23.9982 9.13658 24.0061 8.84243 23.9931 8.53434C23.9545 7.67714 23.5856 6.86814 22.9639 6.27683C22.3421 5.68551 21.5156 5.35777 20.6575 5.36226C19.2793 2.20924 16.1309 0 12.4756 0C8.82033 0 5.67191 2.20924 4.29382 5.36226C3.43553 5.35765 2.60879 5.68551 1.98693 6.2771C1.36508 6.86868 0.996405 7.67805 0.958215 8.5355C0.94525 8.8422 0.953104 9.13658 0.960678 9.42102C0.968717 9.72307 0.977035 10.0355 0.962165 10.3857C0.925755 11.2642 1.239 12.1212 1.83327 12.7691C2.42755 13.4171 3.25441 13.803 4.13271 13.8425C4.18132 13.8446 4.2298 13.8456 4.27816 13.8457C4.69815 13.8459 5.11432 13.7659 5.50429 13.61C5.60341 13.5791 5.69438 13.5264 5.77054 13.4559C5.84669 13.3853 5.90612 13.2986 5.94448 13.2021C5.98284 13.1056 5.99916 13.0018 5.99225 12.8982C5.98534 12.7946 5.95537 12.6939 5.90453 12.6033C5.27531 11.4793 4.94503 10.2126 4.94527 8.92445C4.94527 4.77224 8.32358 1.39412 12.4756 1.39412C16.6276 1.39412 20.0059 4.77243 20.0059 8.92445C20.0111 10.6821 19.3993 12.3857 18.277 13.7384C17.1548 15.0911 15.5934 16.007 13.865 16.3264C13.683 15.9143 13.3627 15.5788 12.9596 15.3778C12.5564 15.1768 12.0957 15.1229 11.657 15.2256C11.2184 15.3282 10.8294 15.5809 10.5573 15.94C10.2852 16.299 10.147 16.7418 10.1668 17.1919C10.1865 17.6419 10.3629 18.0709 10.6654 18.4048C10.9679 18.7386 11.3775 18.9562 11.8235 19.0201C12.2694 19.0839 12.7237 18.99 13.1077 18.7544C13.4917 18.5189 13.7814 18.1566 13.9266 17.7302C15.1543 17.5272 16.3261 17.07 17.367 16.388C18.4078 15.706 19.2948 14.8141 19.9711 13.7696C20.2017 13.82 20.4371 13.8455 20.6732 13.8456C20.7217 13.8456 20.7703 13.8446 20.819 13.8425C21.6971 13.8029 22.5238 13.4169 23.118 12.769C23.7121 12.1212 24.0253 11.2643 23.989 10.386C23.9742 10.0356 23.9825 9.72316 23.9907 9.42102Z" fill="#EB047C"/>
<path d="M23.9907 9.42084C23.9983 9.1364 24.0061 8.84225 23.9931 8.53416C23.9537 7.65586 23.5677 6.82901 22.9196 6.23482C22.2716 5.64063 21.4145 5.32756 20.5361 5.36422C20.3842 5.37113 20.2328 5.38821 20.0832 5.41534C19.983 5.43316 19.8879 5.4727 19.8046 5.53118C19.7214 5.58967 19.6519 5.66568 19.6011 5.75388C19.5504 5.84208 19.5195 5.94033 19.5108 6.04172C19.502 6.14311 19.5156 6.24518 19.5505 6.34077C19.9216 7.35957 20.0687 8.44642 19.9817 9.52721C19.8947 10.608 19.5757 11.6573 19.0464 12.6037C18.9956 12.6942 18.9658 12.7949 18.9589 12.8985C18.9521 13.002 18.9684 13.1058 19.0068 13.2022C19.0452 13.2986 19.1046 13.3853 19.1808 13.4558C19.2569 13.5263 19.3478 13.5789 19.4469 13.6098C19.8369 13.7658 20.2532 13.8457 20.6733 13.8454C20.7217 13.8454 20.7703 13.8444 20.819 13.8423C21.6972 13.8027 22.5239 13.4167 23.118 12.7689C23.7122 12.121 24.0254 11.2641 23.989 10.3858C23.9742 10.0354 23.9825 9.72298 23.9907 9.42084Z" fill="#22C2E2"/>
<path d="M5.90453 12.6033C5.37536 11.657 5.05645 10.6077 4.96953 9.52695C4.88261 8.44622 5.02973 7.35945 5.40085 6.34073C5.43577 6.24514 5.44933 6.14307 5.44059 6.04168C5.43185 5.94029 5.40101 5.84204 5.35024 5.75384C5.29947 5.66564 5.23001 5.58963 5.14673 5.53114C5.06345 5.47266 4.96837 5.43312 4.86818 5.4153C4.71802 5.38811 4.5662 5.37103 4.41375 5.36418C3.53532 5.32777 2.67828 5.64115 2.03053 6.23562C1.38277 6.83008 0.997157 7.65714 0.958215 8.53547C0.94525 8.84216 0.953104 9.13655 0.960678 9.42098C0.968717 9.72303 0.977035 10.0355 0.962165 10.3857C0.925755 11.2641 1.239 12.1212 1.83327 12.7691C2.42755 13.417 3.2544 13.803 4.13271 13.8425C4.18132 13.8446 4.2298 13.8456 4.27816 13.8456C4.69815 13.8459 5.11432 13.7659 5.50429 13.61C5.60341 13.5791 5.69438 13.5264 5.77054 13.4558C5.84669 13.3853 5.90612 13.2986 5.94448 13.2021C5.98284 13.1056 5.99916 13.0018 5.99225 12.8982C5.98534 12.7946 5.95537 12.6938 5.90453 12.6033Z" fill="#22C2E2"/>
<path d="M4.94526 8.92442C4.94425 8.04314 5.0984 7.16856 5.40066 6.34073C5.43558 6.24515 5.44914 6.14307 5.4404 6.04168C5.43165 5.94029 5.40081 5.84204 5.35005 5.75385C5.29928 5.66565 5.22982 5.58963 5.14654 5.53115C5.06325 5.47266 4.96818 5.43312 4.86798 5.4153C4.71782 5.38811 4.56601 5.37103 4.41356 5.36418C4.22471 5.35635 4.03553 5.36464 3.84808 5.38895C3.37094 6.10883 3.10382 6.94742 3.07669 7.81065C3.06224 8.20494 3.07097 8.58273 3.07943 8.94812C3.0884 9.33618 3.09769 9.73744 3.0811 10.1872C3.02622 11.6727 3.64231 13.0159 4.61905 13.8275C4.92277 13.7963 5.22069 13.723 5.50429 13.6099C5.60341 13.579 5.69437 13.5263 5.77053 13.4557C5.84669 13.3852 5.90612 13.2985 5.94448 13.202C5.98284 13.1055 5.99916 13.0017 5.99224 12.8981C5.98533 12.7945 5.95536 12.6937 5.90452 12.6032C5.27534 11.4792 4.94505 10.2125 4.94526 8.92442ZM20.0059 8.92442C20.0069 8.04314 19.8528 7.16856 19.5505 6.34073C19.5156 6.24515 19.502 6.14307 19.5108 6.04168C19.5195 5.94029 19.5504 5.84204 19.6011 5.75385C19.6519 5.66565 19.7214 5.58963 19.8046 5.53115C19.8879 5.47266 19.983 5.43312 20.0832 5.4153C20.2334 5.38811 20.3852 5.37103 20.5377 5.36418C20.7265 5.35635 20.9157 5.36464 21.1031 5.38895C21.5802 6.10883 21.8474 6.94742 21.8745 7.81065C21.8889 8.20494 21.8802 8.58273 21.8717 8.94812C21.8628 9.33618 21.8535 9.73744 21.8701 10.1872C21.9253 11.6725 21.3092 13.0157 20.3325 13.8275C20.0288 13.7962 19.7309 13.723 19.4473 13.6099C19.3481 13.5789 19.2572 13.5263 19.181 13.4557C19.1049 13.3851 19.0454 13.2984 19.0071 13.2019C18.9687 13.1055 18.9524 13.0016 18.9593 12.898C18.9662 12.7944 18.9962 12.6937 19.047 12.6031C19.6761 11.4791 20.0062 10.2125 20.0059 8.92442Z" fill="#22C2E2"/>
<path d="M10.1534 9.62161C9.96853 9.62179 9.79117 9.54853 9.66032 9.41793C9.52948 9.28734 9.45587 9.11012 9.45569 8.92525C9.45551 8.74038 9.52878 8.56302 9.65937 8.43217C9.78996 8.30133 9.96719 8.22772 10.1521 8.22754H10.1534C10.3383 8.22754 10.5156 8.30098 10.6463 8.4317C10.777 8.56242 10.8504 8.73971 10.8504 8.92458C10.8504 9.10944 10.777 9.28674 10.6463 9.41746C10.5156 9.54818 10.3383 9.62161 10.1534 9.62161ZM12.4756 9.62157C12.4527 9.62165 12.4297 9.62055 12.4069 9.61827C12.3843 9.61604 12.3618 9.61264 12.3395 9.60809C12.3172 9.60344 12.2949 9.59787 12.273 9.59136C12.2513 9.58472 12.2299 9.57697 12.2089 9.56813C12.1878 9.55966 12.1672 9.55005 12.1471 9.53932C12.1271 9.52863 12.1076 9.51655 12.0886 9.50395C12.0696 9.49142 12.0513 9.47794 12.0337 9.46357C12.0161 9.44917 11.9989 9.43332 11.9826 9.41757C11.9663 9.40182 11.951 9.38406 11.9366 9.36645C11.9222 9.34888 11.9087 9.33057 11.8962 9.31162C11.8836 9.29257 11.8716 9.27305 11.8609 9.25307C11.8502 9.23309 11.8409 9.21217 11.8321 9.19126C11.8232 9.1703 11.8155 9.1489 11.8088 9.12714C11.8023 9.10525 11.7967 9.08294 11.7921 9.06064C11.7874 9.03833 11.7842 9.01561 11.7819 8.9933C11.7796 8.97045 11.7785 8.9475 11.7786 8.92453C11.7785 8.90172 11.7796 8.87892 11.7819 8.85622C11.7842 8.83345 11.7879 8.81068 11.7921 8.78838C11.7963 8.76607 11.8023 8.74377 11.8088 8.72239C11.8154 8.70045 11.8231 8.67889 11.8321 8.6578C11.8409 8.63689 11.8506 8.61644 11.8609 8.59646C11.8716 8.57621 11.8834 8.55651 11.8962 8.53744C11.9087 8.51885 11.9222 8.50027 11.9366 8.48261C11.951 8.46495 11.9668 8.44776 11.9826 8.43149C11.9984 8.41523 12.0161 8.40036 12.0337 8.38553C12.0514 8.37159 12.0695 8.35765 12.0886 8.34511C12.1076 8.33256 12.1271 8.32094 12.1471 8.31025C12.1671 8.29957 12.188 8.28981 12.2089 8.28098C12.2299 8.27229 12.2513 8.26468 12.273 8.25816C12.3167 8.24496 12.3615 8.23595 12.4069 8.23126C12.4525 8.22661 12.4984 8.22661 12.544 8.23126C12.5668 8.23324 12.5894 8.23666 12.6118 8.24148C12.6341 8.24561 12.6562 8.25119 12.6778 8.25816C12.6997 8.26468 12.7212 8.27229 12.7424 8.28098C12.7633 8.28981 12.7837 8.29957 12.8037 8.31025C12.8238 8.32087 12.8434 8.3325 12.8623 8.34511C12.8813 8.35765 12.8999 8.37159 12.9176 8.38553C12.9352 8.40036 12.9524 8.41574 12.9682 8.43149C12.984 8.44725 12.9998 8.465 13.0147 8.48261C13.0286 8.50027 13.0426 8.51885 13.0551 8.53744C13.0677 8.55651 13.0794 8.57621 13.09 8.59646C13.1007 8.61644 13.1104 8.63689 13.1192 8.6578C13.1281 8.67871 13.1355 8.7005 13.1425 8.72239C13.1495 8.74428 13.1546 8.76607 13.1592 8.78838C13.1639 8.81068 13.1671 8.83345 13.1694 8.85622C13.1718 8.87899 13.1727 8.90176 13.1727 8.92453C13.1727 8.9473 13.1713 8.97053 13.1694 8.9933C13.1676 9.01607 13.1634 9.03833 13.1592 9.06064C13.155 9.08294 13.149 9.10525 13.1425 9.12714C13.136 9.14902 13.1281 9.17035 13.1192 9.19126C13.1104 9.21217 13.1007 9.23309 13.09 9.25307C13.0793 9.27305 13.0677 9.29257 13.0551 9.31162C13.0426 9.33067 13.0286 9.34879 13.0147 9.36645C12.9998 9.38406 12.9845 9.4013 12.9682 9.41757C12.952 9.43383 12.9352 9.44917 12.9176 9.46357C12.8998 9.47795 12.8814 9.49142 12.8623 9.50395C12.8434 9.51674 12.8238 9.52854 12.8037 9.53932C12.7838 9.55004 12.7633 9.55966 12.7424 9.56813C12.7213 9.57697 12.6997 9.58473 12.6778 9.59136C12.6564 9.59787 12.6341 9.60344 12.6118 9.60809C12.5894 9.61267 12.5667 9.61607 12.544 9.61827C12.5213 9.62055 12.4985 9.62165 12.4756 9.62157Z" fill="#FFDD00"/>
<path d="M13.1592 8.78838C13.1545 8.76607 13.149 8.74377 13.1425 8.72239C13.136 8.70101 13.1281 8.67871 13.1192 8.6578C13.1104 8.63689 13.1006 8.61644 13.09 8.59646C13.0793 8.57621 13.0677 8.55651 13.0551 8.53744C13.0426 8.51885 13.0286 8.50027 13.0147 8.48261C12.9998 8.46495 12.9845 8.44776 12.9682 8.43149C12.9519 8.41523 12.9352 8.4004 12.9176 8.38553C12.8999 8.37159 12.8813 8.35765 12.8623 8.34511C12.8433 8.3325 12.8238 8.32087 12.8037 8.31025C12.7837 8.29957 12.7633 8.28981 12.7424 8.28098C12.7212 8.27229 12.6997 8.26468 12.6778 8.25816C12.6562 8.25119 12.6341 8.24561 12.6118 8.24148C12.5894 8.23666 12.5667 8.23324 12.5439 8.23126C12.5212 8.22893 12.4984 8.22776 12.4756 8.22777V9.62161C12.4984 9.6217 12.5212 9.6206 12.5439 9.61831C12.5667 9.61612 12.5893 9.61272 12.6117 9.60814C12.634 9.60349 12.6564 9.59791 12.6777 9.59141C12.6996 9.58477 12.7212 9.57702 12.7423 9.56817C12.7633 9.55971 12.7838 9.55009 12.8037 9.53936C12.8238 9.52859 12.8433 9.5168 12.8622 9.50405C12.8813 9.49145 12.8998 9.47798 12.9175 9.46362C12.9352 9.44926 12.9524 9.43337 12.9682 9.41761C12.984 9.40186 12.9998 9.38411 13.0146 9.3665C13.0286 9.34884 13.0425 9.33072 13.0551 9.31166C13.0676 9.29261 13.0792 9.2731 13.0899 9.25311C13.1006 9.23313 13.1104 9.21222 13.1192 9.19131C13.128 9.1704 13.1354 9.14856 13.1424 9.12718C13.1494 9.10581 13.1545 9.08299 13.1591 9.06068C13.1638 9.03838 13.167 9.01566 13.1694 8.99335C13.1717 8.97105 13.1726 8.94735 13.1726 8.92458C13.1726 8.90181 13.1712 8.87904 13.1694 8.85627C13.1675 8.8335 13.1633 8.81068 13.1592 8.78838ZM14.799 9.62161C14.6142 9.62179 14.4368 9.54851 14.306 9.41792C14.1751 9.28732 14.1015 9.11009 14.1014 8.92523C14.1012 8.74036 14.1745 8.563 14.3051 8.43216C14.4357 8.30132 14.6129 8.22771 14.7977 8.22754H14.799C14.9839 8.22754 15.1612 8.30098 15.2919 8.4317C15.4226 8.56242 15.4961 8.73971 15.4961 8.92458C15.4961 9.10944 15.4226 9.28674 15.2919 9.41746C15.1612 9.54818 14.9839 9.62161 14.799 9.62161Z" fill="#FFDD00"/>
<path d="M12.5454 18.9795C13.5839 18.7332 14.2262 17.6917 13.9799 16.6532C13.7337 15.6146 12.6921 14.9724 11.6536 15.2187C10.6151 15.4649 9.97283 16.5064 10.2191 17.545C10.4654 18.5835 11.5069 19.2257 12.5454 18.9795Z" fill="#22C2E2"/>
<path d="M12.0975 15.1743V19.0395C12.6101 19.0395 13.1017 18.8359 13.4641 18.4735C13.8265 18.111 14.0301 17.6195 14.0301 17.1069C14.0301 16.5944 13.8265 16.1028 13.4641 15.7404C13.1017 15.3779 12.6101 15.1743 12.0975 15.1743Z" fill="#22C2E2"/>
</svg>
